<?xml version="1.0" standalone="no"?>
<!DOCTYPE svg PUBLIC "-//W3C//DTD SVG 20010904//EN"
 "http://www.w3.org/TR/2001/REC-SVG-20010904/DTD/svg10.dtd">
<svg version="1.0" xmlns="http://www.w3.org/2000/svg"
 width="897.000000pt" height="897.000000pt" viewBox="0 0 897.000000 897.000000"
 preserveAspectRatio="xMidYMid meet">
<metadata>
Created by potrace 1.14, written by Peter Selinger 2001-2017
</metadata>
<g transform="translate(0.000000,897.000000) scale(0.100000,-0.100000)"
fill="#000000" stroke="none">
<path d="M4004 8826 c10 -9 22 -13 27 -11 4 3 10 1 14 -5 3 -5 13 -10 22 -10
26 0 174 -78 230 -121 57 -44 153 -144 180 -187 10 -15 20 -29 23 -32 5 -5 13
-18 49 -84 28 -49 70 -166 61 -166 -5 0 -37 6 -72 14 -106 25 -177 31 -338 31
-170 -1 -229 -7 -365 -36 -279 -61 -543 -183 -760 -353 -71 -55 -217 -196
-260 -250 -16 -21 -39 -48 -49 -60 -68 -77 -212 -328 -266 -466 -38 -94 -79
-237 -95 -329 -3 -19 -7 -37 -9 -40 -2 -3 -7 -33 -10 -66 -3 -33 -8 -78 -11
-100 -3 -22 -7 -65 -10 -95 -6 -66 -7 -355 -1 -390 2 -14 7 -54 11 -90 27
-284 156 -598 307 -751 42 -43 146 -119 162 -119 3 0 17 -5 33 -12 32 -13 28
-12 70 -22 l33 -7 -40 -54 c-66 -90 -102 -163 -95 -196 10 -45 22 -35 45 39
19 63 24 69 76 102 104 65 132 122 113 225 -30 163 -15 234 78 363 16 23 16
23 -23 -3 -54 -36 -90 -78 -120 -137 -28 -55 -32 -76 -33 -155 -1 -51 -1 -52
-28 -47 -150 26 -280 198 -329 434 -35 172 -35 491 0 670 3 14 10 54 16 90 20
118 94 374 136 467 8 17 14 34 14 38 0 17 127 266 174 340 147 236 349 439
556 559 94 55 215 103 337 133 96 23 128 26 283 27 143 0 195 -4 283 -22 114
-24 307 -84 392 -122 130 -58 323 -157 335 -171 3 -3 21 -14 40 -25 19 -10 39
-23 45 -27 101 -77 401 -275 420 -277 3 -1 18 -6 35 -11 16 -6 32 -10 36 -9 4
1 10 -2 13 -7 6 -9 120 -50 157 -57 40 -8 173 -64 239 -101 59 -33 169 -130
215 -190 75 -98 138 -272 156 -430 12 -109 6 -337 -10 -421 -2 -12 -7 -37 -10
-55 -3 -19 -8 -44 -10 -55 -2 -12 -7 -37 -10 -55 -3 -19 -25 -104 -50 -189
l-44 -155 36 41 c58 65 129 220 148 324 3 14 7 33 10 42 41 138 47 390 13 593
-53 316 -234 572 -498 705 -35 17 -116 50 -180 71 -285 98 -412 185 -635 437
-111 126 -184 197 -231 228 -17 10 -32 22 -35 26 -3 4 -42 25 -87 48 l-81 40
-46 94 c-99 204 -276 389 -491 513 -94 54 -177 84 -250 89 -55 4 -58 3 -41
-10z m376 -677 c24 -7 114 -28 142 -33 80 -13 279 -106 388 -181 87 -59 194
-145 188 -151 -2 -2 -60 25 -128 59 -136 68 -175 85 -265 117 -71 25 -232 66
-295 75 -25 4 -58 9 -75 12 -96 16 -355 5 -462 -20 -139 -33 -245 -72 -358
-132 -360 -192 -640 -537 -805 -995 -31 -85 -75 -242 -85 -300 -3 -19 -10 -51
-15 -70 -15 -60 -39 -240 -45 -350 -4 -57 -8 -107 -11 -111 -2 -4 0 -10 6 -14
6 -4 7 -12 3 -18 -9 -15 -6 -224 4 -240 5 -8 2 -8 -9 1 -9 7 -18 25 -21 40 -3
15 -8 36 -11 47 -14 48 -38 167 -50 250 -14 91 -15 403 -2 475 30 159 43 212
83 330 44 132 140 332 188 396 14 18 25 35 25 38 0 3 6 14 14 23 8 10 35 45
60 78 88 119 282 301 418 394 48 32 216 131 223 131 3 0 30 12 61 26 56 26
125 52 154 59 8 2 47 13 86 24 39 11 86 23 105 26 19 4 52 10 74 14 51 10 381
10 415 0z"/>
<path d="M3600 8799 c-53 -24 -133 -104 -149 -150 l-11 -33 32 30 c75 70 95
85 136 105 53 26 78 27 125 4 38 -18 162 -143 152 -153 -6 -6 -10 -7 -85 -17
-25 -3 -63 -10 -85 -15 -22 -5 -56 -12 -75 -15 -19 -3 -53 -11 -75 -17 -67
-18 -97 -22 -163 -22 l-63 0 -59 62 c-33 34 -65 62 -72 63 -7 0 -20 2 -29 4
-27 5 -94 -30 -117 -61 -12 -16 -27 -35 -33 -42 -15 -18 -24 -82 -11 -82 5 0
25 20 43 44 39 51 71 73 114 78 28 3 32 -1 62 -62 17 -36 32 -68 32 -71 1 -8
-166 -89 -192 -95 -11 -2 -53 1 -95 6 -173 21 -281 16 -343 -15 -43 -23 -77
-74 -83 -127 -3 -26 -2 -49 3 -52 8 -6 37 31 61 77 25 50 69 68 171 70 50 1
93 -1 96 -5 2 -5 15 -8 28 -8 54 0 57 -11 9 -42 -49 -31 -164 -120 -225 -174
-35 -30 -102 -58 -164 -68 -33 -5 -79 -11 -165 -21 -78 -9 -135 -39 -154 -79
-16 -35 -20 -102 -7 -146 7 -23 8 -22 15 15 11 56 40 109 72 130 18 12 53 19
108 21 45 3 96 6 114 9 l33 4 -43 -51 c-24 -28 -67 -80 -95 -117 -94 -119
-103 -126 -211 -155 -127 -36 -146 -43 -183 -76 -40 -34 -60 -106 -46 -164 13
-56 27 -68 27 -24 0 42 17 96 39 122 9 10 34 27 56 37 42 18 145 36 145 25 0
-3 -10 -23 -23 -44 -13 -20 -41 -68 -62 -107 -96 -176 -127 -231 -140 -245 -8
-9 -62 -40 -119 -69 -173 -88 -224 -147 -213 -242 8 -62 78 -201 95 -185 2 3
0 11 -6 18 -18 23 -40 114 -37 152 5 44 30 88 66 115 30 23 127 73 173 91 24
9 27 8 22 -6 -15 -39 -56 -218 -71 -309 -19 -114 -37 -148 -126 -240 -115
-120 -149 -176 -149 -247 0 -49 18 -83 67 -128 85 -79 109 -92 53 -29 -90 101
-85 176 18 276 26 25 59 54 75 65 l27 19 0 -113 c0 -62 7 -157 14 -210 18
-123 12 -148 -67 -300 -58 -112 -62 -125 -62 -187 0 -60 3 -71 33 -108 31 -39
151 -128 160 -118 2 2 -13 21 -33 42 -98 100 -124 171 -87 240 36 66 107 182
113 183 3 0 29 -73 58 -162 29 -90 56 -173 61 -185 13 -32 42 -142 47 -182 6
-40 -14 -61 -58 -61 -48 0 -105 -93 -94 -153 5 -24 65 -82 117 -111 27 -15 24
-10 -21 33 -48 47 -53 55 -47 84 6 35 40 68 117 116 l49 30 15 -52 c8 -29 17
-80 21 -115 6 -60 5 -65 -29 -116 -20 -30 -64 -78 -98 -107 -169 -145 -199
-183 -199 -249 0 -36 23 -85 43 -93 11 -4 13 4 11 38 -4 54 18 132 43 151 10
8 47 34 83 58 36 24 82 60 103 80 l37 37 0 -30 c0 -16 -7 -65 -16 -108 -9 -43
-17 -87 -20 -98 -15 -76 -14 -80 6 -36 11 25 22 54 25 65 2 12 4 22 6 24 1 1
2 5 3 10 1 4 10 32 19 63 16 53 29 119 30 147 0 10 17 19 17 9 0 -2 18 -48 41
-102 22 -55 43 -117 45 -137 5 -35 2 -42 -53 -99 -32 -33 -63 -67 -70 -73 -6
-7 -27 -45 -48 -85 -32 -65 -38 -71 -53 -59 -9 7 -19 16 -22 19 -3 4 -22 14
-43 22 -36 16 -37 15 -27 -3 6 -11 14 -20 19 -20 4 0 8 -6 8 -12 0 -17 76
-138 85 -138 5 0 8 10 8 22 0 12 18 59 40 105 32 65 59 102 125 169 90 91 102
117 91 191 -7 53 -54 190 -85 250 -27 54 -62 142 -66 168 -3 17 -8 47 -11 69
l-7 38 44 -27 c191 -120 194 -124 193 -236 -1 -66 2 -89 11 -89 7 0 16 8 20
18 6 16 9 29 19 87 7 39 -12 92 -42 115 -15 11 -40 30 -56 43 -109 82 -219
241 -296 427 -17 41 -35 84 -40 95 -21 45 -29 75 -20 75 19 0 175 -126 191
-155 9 -16 20 -55 23 -85 12 -104 19 -130 31 -130 15 0 25 37 26 90 1 106 -61
199 -169 254 -49 25 -117 97 -144 152 -46 91 -61 175 -71 387 l-3 58 73 -78
c95 -103 116 -147 110 -230 -3 -35 -1 -63 3 -63 18 0 34 46 36 101 3 70 -16
110 -86 175 -74 69 -111 150 -114 251 -2 44 2 118 9 165 12 79 69 311 82 332
14 23 95 -266 91 -324 -2 -25 -13 -44 -36 -67 -36 -34 -38 -60 -6 -55 28 5 64
42 82 82 30 69 27 116 -17 251 -60 183 -60 273 0 412 38 85 161 268 173 256 2
-2 7 -55 11 -117 9 -141 -3 -181 -77 -247 -42 -38 -47 -45 -28 -45 31 0 84 27
119 60 35 34 41 67 39 220 0 84 4 118 21 170 19 57 83 176 101 190 4 3 11 13
17 23 12 23 153 167 163 167 10 0 -19 -146 -42 -207 -13 -35 -33 -65 -60 -88
-49 -41 -46 -43 25 -11 52 23 93 64 102 103 35 142 46 180 68 225 30 61 102
140 171 187 52 36 206 114 212 108 7 -7 -55 -92 -108 -149 -38 -41 -65 -59
-95 -67 -66 -18 -72 -46 -9 -44 55 2 95 30 242 174 78 75 156 145 173 153 17
9 31 20 31 25 0 22 303 92 467 107 l68 6 -50 -52 c-44 -47 -112 -89 -155 -97
-19 -3 -81 -12 -140 -18 -57 -7 -110 -24 -110 -36 0 -20 127 -13 240 12 45 11
70 19 125 40 17 7 35 13 40 14 27 7 94 53 88 60 -5 4 -2 5 5 1 7 -5 32 7 61
27 46 33 49 34 85 22 46 -16 99 -51 150 -100 48 -47 68 -36 42 24 -21 44 -72
97 -132 134 -36 22 -164 68 -182 66 -55 -8 -75 3 -170 97 -53 52 -112 102
-131 110 -47 20 -108 17 -161 -7z"/>
<path d="M3371 8719 c-18 -4 -41 -15 -50 -24 -15 -16 -14 -17 14 -11 17 4 41
8 53 11 29 4 39 13 26 24 -5 4 -24 5 -43 0z"/>
<path d="M3654 8668 c-17 -4 -37 -14 -43 -22 -9 -11 -6 -15 14 -20 34 -9 91 2
106 20 22 27 -17 38 -77 22z"/>
<path d="M2876 8497 c-35 -22 -60 -47 -52 -54 9 -9 98 38 104 55 5 15 -26 15
-52 -1z"/>
<path d="M3121 8476 c-18 -21 -4 -41 17 -24 13 11 14 11 8 0 -7 -12 -4 -12 13
-2 12 6 20 17 18 23 -6 18 -42 20 -56 3z"/>
<path d="M4133 8383 c-12 -2 -27 -11 -33 -18 -16 -20 4 -27 61 -23 36 2 44 7
44 23 0 21 -26 28 -72 18z"/>
<path d="M2712 8231 c-46 -43 -53 -61 -22 -58 31 2 95 61 87 80 -9 25 -18 21
-65 -22z"/>
<path d="M3381 8249 c-22 -10 -41 -23 -41 -29 0 -20 31 -22 71 -5 39 18 70 44
53 46 -5 0 -16 2 -25 4 -9 1 -35 -5 -58 -16z"/>
<path d="M2455 8168 c-28 -15 -65 -50 -76 -70 -8 -14 -6 -16 8 -10 44 17 101
65 96 78 -3 8 -6 14 -7 14 0 0 -10 -6 -21 -12z"/>
<path d="M2934 7948 c-47 -37 -56 -48 -51 -62 8 -20 39 -10 76 23 55 49 33 83
-25 39z"/>
<path d="M2345 7864 c-27 -27 -48 -75 -37 -86 20 -20 70 22 78 65 5 31 -19 43
-41 21z"/>
<path d="M2101 7744 c-21 -27 -36 -63 -28 -70 11 -12 37 11 51 47 19 46 19 49
7 49 -5 0 -19 -12 -30 -26z"/>
<path d="M2562 7553 c-22 -19 -34 -39 -37 -60 -6 -54 25 -39 77 37 37 53 13
67 -40 23z"/>
<path d="M4153 7479 c-75 -15 -173 -97 -224 -188 -19 -35 -38 -50 -94 -78 -80
-41 -94 -56 -95 -100 0 -46 25 -58 84 -42 26 7 43 25 84 88 117 179 250 261
417 257 36 0 65 2 65 5 0 4 -26 18 -57 32 -62 27 -128 37 -180 26z"/>
<path d="M2094 7452 c-6 -4 -11 -15 -11 -25 0 -16 2 -16 19 0 27 25 21 45 -8
25z"/>
<path d="M2310 7339 c-18 -32 -20 -57 -5 -69 10 -8 16 -1 29 30 16 40 14 60
-4 60 -5 0 -14 -9 -20 -21z"/>
<path d="M4462 7334 c-154 -32 -232 -109 -287 -280 -12 -40 -29 -64 -76 -107
-36 -32 -58 -60 -54 -67 8 -13 52 -6 105 18 19 8 41 16 48 18 8 1 21 6 30 10
44 18 158 24 195 10 43 -16 70 -76 70 -153 0 -70 -11 -89 -60 -109 -34 -15
-83 -5 -83 16 0 20 -18 9 -24 -15 -4 -17 -19 -31 -44 -41 -80 -34 -125 -59
-121 -69 2 -6 38 -9 87 -7 74 4 82 2 76 -13 -12 -31 -80 -53 -168 -54 -44 0
-92 -3 -105 -5 -26 -6 -61 -34 -61 -49 0 -5 26 -35 58 -67 31 -32 67 -76 80
-99 24 -42 37 -136 23 -159 -8 -14 -71 -35 -71 -23 0 3 -11 8 -25 9 -14 1 -25
-3 -25 -8 0 -6 6 -10 14 -10 8 0 16 -5 18 -11 8 -25 141 -14 159 13 3 6 10 10
15 9 5 0 23 9 39 19 17 11 39 25 50 32 11 7 22 16 25 19 7 9 101 56 126 63 26
8 53 -18 32 -31 -7 -4 -22 -19 -33 -32 l-20 -24 30 8 c43 11 74 10 120 -3 56
-16 165 -16 165 -1 0 11 -53 47 -97 66 -37 16 -37 16 -13 23 47 13 150 -27
286 -111 68 -41 82 -43 147 -16 22 10 37 12 37 6 0 -26 -38 -71 -76 -89 -51
-25 -90 -20 -194 22 -62 26 -89 31 -155 31 -120 0 -221 -18 -260 -47 -21 -15
-15 -33 7 -20 19 12 44 15 144 17 134 2 213 -30 180 -74 -14 -20 -69 -39 -186
-67 -105 -25 -173 -54 -205 -86 -22 -22 -23 -28 -14 -50 7 -14 27 -32 46 -41
34 -17 35 -16 120 25 47 23 97 42 112 42 29 1 111 -32 111 -44 0 -5 6 -8 14
-8 8 0 16 -5 18 -12 7 -21 109 -17 196 8 161 47 225 114 222 231 -8 259 -5
316 22 382 47 114 20 218 -70 269 l-37 21 -57 -38 c-66 -45 -94 -52 -140 -36
-40 14 -118 62 -118 73 0 5 32 0 70 -9 90 -23 170 -10 170 27 0 18 -29 30 -93
37 -36 5 -55 13 -74 34 l-25 28 7 -25 c4 -14 12 -31 17 -37 7 -9 6 -13 -3 -14
-55 -5 -90 22 -94 70 -1 17 -5 34 -7 37 -12 11 -42 -99 -52 -188 -1 -3 -4 -9
-7 -13 -10 -9 -24 37 -44 141 -17 89 -15 201 3 232 10 15 112 26 290 31 12 1
22 7 22 15 0 23 -219 236 -309 300 -92 66 -117 72 -219 50z m220 -888 c49 -21
108 -73 108 -96 0 -26 -23 -31 -81 -16 l-52 14 -42 -44 c-48 -51 -66 -50 -91
2 -17 36 -29 40 -84 24 -45 -13 -57 0 -33 36 59 92 170 124 275 80z"/>
<path d="M1876 7258 c-8 -13 -22 -39 -30 -59 -13 -31 -13 -39 -1 -55 13 -18
14 -17 24 11 6 17 16 40 22 52 6 11 8 26 5 32 -4 6 -3 11 2 11 5 0 9 7 9 15 0
22 -14 18 -31 -7z"/>
<path d="M2289 7043 c-6 -16 -13 -43 -16 -62 -9 -52 18 -35 39 25 22 60 22 64
3 64 -9 0 -20 -12 -26 -27z"/>
<path d="M5146 6933 c64 -86 73 -101 106 -163 18 -36 47 -96 62 -133 34 -81
47 -74 43 24 -3 81 -39 160 -102 228 -72 77 -161 112 -109 44z"/>
<path d="M3633 6900 c-9 -16 -20 -30 -23 -30 -3 0 -35 -27 -70 -60 -36 -34
-92 -82 -125 -108 -91 -70 -112 -92 -154 -157 -58 -89 -71 -146 -65 -273 14
-294 10 -350 -33 -442 -22 -49 -81 -131 -112 -155 -14 -11 -32 -28 -40 -37 -8
-9 -18 -15 -23 -12 -4 3 -8 0 -8 -5 0 -37 106 16 165 82 150 166 199 327 164
537 -23 135 -5 269 45 349 21 33 80 93 161 165 87 77 125 121 138 159 10 26 0
20 -20 -13z"/>
<path d="M3807 6905 c-9 -8 -25 -45 -37 -82 -30 -92 -56 -123 -137 -166 -84
-44 -114 -71 -144 -128 -31 -62 -31 -118 1 -309 16 -92 6 -138 -60 -280 -78
-169 -81 -179 -82 -290 -1 -74 34 -220 54 -228 4 -2 8 -10 8 -17 0 -8 5 -17
11 -21 7 -4 9 0 5 12 -11 36 -15 173 -6 226 9 58 30 110 84 206 54 95 67 171
51 292 -9 73 -7 257 5 300 7 26 25 56 45 74 18 17 51 48 74 69 45 43 96 146
116 236 2 9 10 40 18 69 8 28 13 52 11 52 -1 0 -9 -7 -17 -15z"/>
<path d="M1854 6882 c-13 -8 -34 -67 -34 -95 0 -32 28 -1 41 45 11 44 9 61 -7
50z"/>
<path d="M4925 6833 c-42 -9 -85 -25 -85 -31 0 -4 21 -7 47 -7 27 0 74 -4 106
-8 61 -9 74 1 35 27 -26 17 -73 25 -103 19z"/>
<path d="M4174 6778 c-31 -10 -64 -52 -51 -64 4 -4 29 3 56 15 31 13 72 21
108 22 42 0 52 3 38 9 -11 5 -15 9 -10 10 6 1 1 5 -10 10 -27 11 -93 10 -131
-2z"/>
<path d="M2092 6752 c-8 -23 -7 -35 3 -49 12 -16 14 -14 20 20 10 49 -8 71
-23 29z"/>
<path d="M1655 6603 c-12 -63 -13 -77 -4 -102 12 -30 18 -24 24 22 3 20 5 40
6 44 4 25 -2 73 -10 73 -5 0 -12 -17 -16 -37z"/>
<path d="M5459 6603 c21 -39 71 -153 76 -175 3 -13 12 -65 19 -116 19 -123 38
-151 133 -193 110 -48 146 -92 158 -195 3 -27 7 -62 10 -79 2 -16 7 -59 10
-95 4 -35 11 -72 16 -82 5 -9 9 -28 9 -42 0 -14 5 -28 10 -31 6 -4 8 -10 6
-14 -3 -4 11 -38 30 -76 41 -83 141 -184 212 -216 26 -12 61 -28 77 -36 25
-12 23 -8 -14 24 -92 79 -193 188 -226 244 -38 65 -51 108 -60 189 l-6 55 22
-35 c109 -176 194 -256 293 -274 14 -3 30 -7 36 -11 5 -3 10 -4 10 -2 0 3 -24
18 -52 35 -153 86 -256 255 -291 478 -6 37 -49 121 -79 154 -13 14 -46 40 -74
58 -28 18 -59 41 -69 53 -21 22 -44 83 -45 114 -1 34 -35 98 -76 141 -21 22
-51 57 -66 76 -36 47 -57 68 -69 68 -6 0 -6 -7 0 -17z"/>
<path d="M2155 6478 c-8 -32 2 -145 15 -167 8 -13 10 -12 11 9 8 114 -10 221
-26 158z"/>
<path d="M3750 6485 c0 -8 -4 -15 -8 -15 -27 0 -72 -128 -72 -205 0 -53 52
-259 70 -275 3 -3 7 -31 8 -62 5 -76 -18 -150 -85 -278 -32 -62 -56 -121 -58
-145 -2 -22 -5 -42 -6 -45 -1 -3 -3 -81 -4 -175 -4 -291 -26 -423 -95 -567
-16 -34 -27 -64 -25 -66 6 -7 65 28 94 57 69 67 86 138 96 400 6 150 12 195
36 286 11 39 20 76 21 83 1 6 5 12 8 12 11 0 114 210 106 217 -3 3 -1 12 5 19
6 8 11 46 11 86 -1 58 -9 99 -40 193 -47 141 -61 201 -65 272 -3 52 7 169 18
204 4 11 2 19 -4 19 -6 0 -11 -7 -11 -15z"/>
<path d="M1800 6228 c0 -45 10 -79 21 -72 10 6 12 64 3 88 -10 27 -24 18 -24
-16z"/>
<path d="M5439 6180 c-7 -91 13 -160 82 -275 l48 -80 2 -120 c2 -146 17 -193
99 -315 31 -47 69 -108 84 -135 l28 -50 -6 65 c-8 100 -11 111 -46 177 -30 57
-33 70 -36 170 -4 157 -14 196 -64 253 -52 59 -96 135 -172 300 -16 33 -17 33
-19 10z"/>
<path d="M2070 6118 c0 -38 13 -63 28 -54 9 6 7 59 -3 77 -13 19 -25 8 -25
-23z"/>
<path d="M8202 5994 c-24 -18 -51 -38 -60 -43 -9 -5 -14 -12 -11 -15 3 -4 17
3 30 15 13 11 36 28 52 37 15 9 27 20 27 25 0 4 5 5 12 1 7 -4 8 -3 4 4 -4 7
-8 12 -9 11 -1 0 -21 -16 -45 -35z"/>
<path d="M1736 5983 c-6 -20 -4 -41 10 -105 6 -28 23 -38 25 -15 5 50 3 73
-11 105 -15 34 -17 35 -24 15z"/>
<path d="M8069 5902 c-20 -15 -47 -34 -59 -42 -12 -8 -28 -21 -36 -27 -7 -7
-16 -13 -20 -13 -4 0 -30 -17 -58 -38 -28 -20 -78 -55 -111 -77 -33 -22 -62
-43 -65 -46 -3 -3 -20 -14 -37 -24 -18 -11 -33 -23 -33 -27 0 -4 -6 -8 -13 -8
-7 0 -25 -11 -40 -25 -15 -14 -27 -23 -27 -21 0 3 -42 -23 -92 -59 -51 -35
-120 -83 -153 -105 -33 -23 -117 -81 -186 -128 -70 -48 -200 -136 -289 -197
-89 -60 -168 -114 -174 -120 -7 -5 -19 -14 -29 -20 -29 -17 -516 -352 -542
-372 -6 -4 -37 -26 -70 -48 -33 -22 -64 -44 -70 -48 -5 -4 -86 -60 -180 -123
-189 -129 -271 -184 -555 -379 -107 -73 -208 -143 -225 -155 -28 -20 -268
-186 -309 -213 -10 -6 -24 -18 -32 -24 -7 -7 -15 -13 -18 -13 -2 0 -96 -63
-208 -140 -112 -77 -210 -144 -218 -150 -19 -13 -147 -101 -229 -157 -34 -24
-113 -78 -175 -120 -61 -41 -112 -79 -114 -84 -2 -5 -8 -9 -14 -9 -5 0 -44
-24 -86 -53 -82 -57 -248 -171 -322 -221 -25 -17 -51 -36 -58 -43 -7 -7 -17
-13 -22 -13 -5 0 -15 -6 -22 -12 -7 -7 -62 -47 -123 -88 -60 -40 -150 -102
-200 -137 -49 -34 -133 -91 -185 -127 -52 -35 -147 -100 -210 -143 -63 -44
-144 -99 -180 -123 -36 -24 -67 -48 -71 -52 -3 -4 -23 10 -45 33 -80 82 -149
90 -323 36 -44 -14 -45 -14 -89 20 -24 18 -51 33 -60 34 -9 0 -26 2 -37 4 -19
4 -95 -32 -95 -45 0 -4 -6 -7 -12 -7 -29 -2 -173 -71 -170 -81 1 -7 -2 -12 -6
-12 -5 0 -9 -6 -10 -12 -14 -121 -17 -129 -36 -122 -23 9 -72 -22 -90 -58 -37
-73 -58 -104 -90 -133 -64 -59 -77 -96 -62 -182 4 -24 12 -45 17 -49 39 -24
-34 -90 -136 -124 -35 -12 -39 -11 -59 15 -19 24 -24 26 -48 14 -72 -32 -81
-169 -19 -285 48 -92 103 -129 188 -129 78 0 91 11 74 63 -7 22 -10 49 -6 61
12 38 202 151 217 128 4 -6 10 -9 13 -5 4 3 -28 53 -71 110 -126 168 -152 252
-99 311 14 15 30 27 35 27 15 0 60 50 60 66 0 21 40 97 59 112 9 6 32 12 51
11 62 -2 62 -2 53 38 -20 105 0 139 89 145 57 4 63 7 102 50 38 42 43 44 71
35 114 -37 359 -430 338 -540 -6 -32 -40 -44 -74 -27 -62 34 -176 169 -230
272 -13 27 -28 48 -32 48 -5 0 -6 3 -4 8 3 4 -4 16 -14 26 -19 19 -19 19 -20
0 -7 -106 58 -250 159 -354 59 -61 63 -67 57 -100 -13 -69 -28 -80 -79 -60
-51 19 -222 224 -288 344 -9 17 -17 24 -18 15 0 -17 39 -139 50 -154 4 -5 13
-28 20 -50 7 -22 21 -55 31 -72 10 -18 16 -33 14 -33 -3 0 6 -22 19 -49 21
-41 23 -51 12 -66 -16 -22 -58 -23 -90 -2 -31 21 -104 109 -146 177 -19 30
-37 57 -40 60 -4 3 -9 13 -13 22 -11 31 -25 19 -21 -19 7 -77 15 -108 44 -167
49 -99 108 -152 182 -162 68 -9 121 26 163 106 12 24 21 30 33 24 36 -16 102
-16 127 0 26 17 50 62 60 112 6 31 14 34 60 24 25 -6 48 2 70 24 18 18 22 31
19 64 -2 22 -9 53 -15 69 -7 15 -13 33 -14 39 -5 23 -88 184 -104 201 -9 10
-23 32 -31 48 -8 17 -29 50 -47 74 -18 24 -32 45 -30 47 1 2 14 5 27 7 14 3
47 11 73 17 98 25 167 -26 153 -113 -4 -23 -12 -45 -19 -49 -8 -5 12 -29 60
-73 96 -88 114 -119 117 -203 5 -144 -62 -268 -197 -360 -51 -36 -184 -102
-204 -102 -7 0 -13 -4 -13 -8 0 -4 -8 -8 -17 -9 -10 -1 -60 -12 -111 -26 -52
-14 -117 -29 -145 -33 -29 -4 -54 -9 -57 -9 -3 -1 -24 -5 -47 -10 -24 -4 -43
-11 -43 -16 0 -10 73 -59 122 -81 61 -28 164 -41 267 -35 53 3 107 8 120 11
55 12 137 39 149 48 6 6 12 8 12 4 0 -10 172 79 199 103 13 12 27 21 31 21 4
0 39 30 77 67 130 128 193 258 193 401 0 70 -19 175 -35 190 -21 21 -68 -93
-80 -193 -27 -223 -125 -350 -361 -469 -73 -36 -201 -76 -244 -76 -19 0 -6 11
50 41 41 22 83 42 93 46 9 3 17 9 17 14 0 5 5 9 11 9 25 0 161 103 235 178 82
84 106 161 87 287 -3 22 -6 65 -7 96 -1 64 2 67 104 136 30 20 89 68 130 105
59 54 234 195 435 350 6 4 24 18 40 31 17 13 131 100 255 192 124 93 227 173
228 177 2 4 10 8 17 8 7 0 15 3 17 8 2 4 91 72 198 151 107 80 245 181 305
226 193 144 459 340 482 355 40 28 498 364 503 369 3 4 28 22 55 41 28 19 100
71 160 115 61 45 211 155 335 245 124 90 239 174 255 187 43 34 31 25 270 197
121 88 225 165 231 173 6 7 14 13 18 13 6 0 51 31 91 63 5 4 40 29 76 55 37
26 77 55 90 64 13 10 49 36 79 58 30 22 66 49 80 60 14 10 90 66 170 124 80
58 150 109 155 113 6 5 26 19 45 33 19 13 85 61 147 107 62 46 114 83 118 83
3 0 13 8 23 18 10 9 29 24 41 32 52 34 186 135 189 142 2 4 10 8 17 8 7 0 15
4 17 8 2 4 19 19 38 32 71 49 370 272 370 276 0 9 -17 1 -51 -24z m-2269
-1616 c0 -3 -30 -26 -67 -53 -38 -26 -129 -92 -203 -147 -74 -54 -154 -113
-178 -130 -49 -36 -112 -82 -127 -93 -14 -11 -172 -127 -290 -212 -55 -40
-111 -81 -125 -91 -14 -11 -95 -70 -180 -132 -86 -62 -167 -121 -180 -131 -40
-29 -124 -91 -151 -110 -13 -9 -130 -95 -259 -190 -130 -94 -264 -192 -299
-217 -34 -25 -68 -50 -74 -55 -7 -6 -52 -40 -102 -75 -103 -74 -109 -79 -136
-103 -10 -9 -24 -17 -29 -17 -5 0 -10 -4 -10 -10 0 -5 -5 -10 -11 -10 -6 0
-16 -6 -24 -12 -22 -21 -52 -45 -61 -49 -12 -5 -320 -235 -360 -268 -17 -14
-41 -33 -54 -41 -12 -8 -35 -24 -49 -36 -14 -12 -75 -59 -136 -104 -60 -46
-112 -86 -115 -89 -27 -33 -102 -78 -87 -53 3 4 8 31 11 61 12 114 21 123 266
286 25 16 54 38 64 47 11 10 23 18 28 18 4 0 28 15 52 32 52 39 60 45 201 142
321 219 413 282 545 374 80 56 173 121 208 144 34 24 70 49 80 56 9 7 85 58
167 115 155 106 301 207 465 320 163 112 548 378 664 458 61 42 209 144 330
227 214 149 226 157 226 148z m-4902 -3206 c9 -19 35 -68 59 -109 24 -40 42
-75 40 -77 -2 -2 -26 7 -53 21 -59 29 -84 77 -84 158 0 52 10 82 19 55 2 -7
11 -29 19 -48z m188 -127 c-19 -41 -19 -41 -68 47 -14 25 -35 62 -47 83 -38
67 -23 63 56 -17 l76 -77 -17 -36z"/>
<path d="M2200 5911 c0 -17 43 -121 50 -121 9 0 2 72 -10 104 -9 24 -40 37
-40 17z"/>
<path d="M3968 5628 c4 -18 7 -62 7 -98 -1 -70 -10 -93 -82 -210 -58 -94 -68
-134 -62 -255 3 -48 52 -186 93 -258 54 -94 118 -176 124 -157 3 7 -2 16 -9
21 -8 5 -10 9 -6 9 4 0 2 10 -5 23 -7 12 -13 24 -13 27 0 3 -16 35 -34 72 -30
61 -33 74 -33 165 -1 110 4 165 31 338 24 152 18 333 -10 351 -5 3 -5 -10 -1
-28z"/>
<path d="M1930 5613 c0 -10 11 -42 25 -70 17 -38 28 -51 39 -47 13 5 12 13 -6
62 -20 53 -32 71 -50 72 -5 0 -8 -8 -8 -17z"/>
<path d="M2210 5599 c0 -11 4 -17 10 -14 6 3 7 -1 4 -9 -3 -9 -1 -16 5 -16 12
0 14 20 5 44 -9 23 -24 20 -24 -5z"/>
<path d="M3218 5423 c-35 -76 -39 -102 -43 -241 -2 -96 -7 -129 -28 -183 -14
-37 -32 -75 -41 -85 -8 -11 -30 -38 -50 -62 -19 -23 -54 -59 -77 -80 -141
-125 -201 -214 -199 -295 0 -23 1 -52 0 -65 0 -25 39 -144 50 -152 4 -3 11
-18 17 -34 5 -17 16 -31 24 -34 8 -2 10 0 4 5 -14 11 -20 63 -20 174 0 81 4
104 25 150 14 30 27 56 30 59 3 3 22 30 43 62 38 56 109 128 201 202 60 49
100 103 125 172 31 81 31 145 3 249 -13 50 -25 118 -25 153 0 34 -3 62 -6 62
-3 0 -18 -26 -33 -57z"/>
<path d="M4925 5458 c-33 -12 -73 -34 -89 -49 -26 -24 -30 -35 -30 -76 1 -41
9 -98 14 -98 7 0 28 -130 24 -149 -12 -63 -18 -77 -50 -110 -32 -33 -37 -35
-55 -23 -45 32 -149 139 -149 154 0 3 -6 14 -14 22 -8 9 -30 49 -51 89 -20 39
-38 72 -41 72 -12 0 11 -183 51 -411 4 -20 0 -29 -13 -33 -37 -12 -138 -38
-157 -40 -73 -10 -175 -48 -175 -66 0 -29 234 -31 365 -4 11 3 43 9 70 14 64
13 273 68 305 80 14 6 34 12 45 14 31 7 231 79 290 105 92 41 195 95 219 115
36 30 27 47 -42 72 -106 39 -208 128 -271 237 -53 91 -65 100 -129 104 -39 2
-76 -4 -117 -19z"/>
<path d="M5845 5443 c4 -10 16 -47 27 -83 11 -36 25 -71 30 -77 6 -7 7 -13 4
-13 -16 0 68 -140 106 -178 44 -45 116 -83 188 -99 58 -13 147 -16 153 -6 3 5
-3 9 -13 10 -21 2 -85 23 -145 48 -55 23 -165 97 -195 132 -46 50 -90 121 -90
142 0 12 -4 21 -8 21 -4 0 -9 11 -10 24 -1 13 -11 40 -23 60 -22 38 -36 48
-24 19z"/>
<path d="M2406 5358 c17 -57 54 -107 54 -74 0 30 -32 96 -47 96 -10 0 -12 -6
-7 -22z"/>
<path d="M1886 5343 c9 -41 34 -77 45 -66 13 13 -9 71 -32 84 -18 9 -19 7 -13
-18z"/>
<path d="M2120 5126 c0 -46 22 -80 34 -51 3 8 4 21 2 28 -3 6 -7 24 -10 40
-10 42 -26 32 -26 -17z"/>
<path d="M2385 5083 c9 -70 45 -104 45 -44 0 41 -15 77 -35 85 -15 5 -16 0
-10 -41z"/>
<path d="M3411 5006 c-19 -30 -54 -76 -78 -103 -207 -227 -259 -344 -207 -469
20 -48 102 -154 120 -154 6 0 2 39 -12 120 -4 19 -7 78 -7 130 -1 124 9 146
91 187 35 17 70 40 77 50 13 17 31 71 41 117 7 32 17 176 13 176 -2 0 -19 -25
-38 -54z"/>
<path d="M1990 4965 c-6 -14 -10 -30 -10 -34 0 -5 -9 -20 -20 -34 -13 -16 -16
-28 -10 -32 14 -9 32 4 24 17 -4 6 -2 8 3 5 16 -10 35 18 38 58 4 43 -11 56
-25 20z"/>
<path d="M5808 4925 c-2 -2 -24 -5 -48 -6 -25 -1 -49 -5 -55 -8 -5 -3 -23 -6
-39 -7 -16 -2 -41 -6 -55 -9 -14 -4 -37 -9 -51 -11 -60 -10 -124 -27 -295 -81
-80 -24 -263 -87 -300 -102 -11 -5 -103 -41 -205 -80 -209 -81 -375 -147 -405
-161 -79 -38 -425 -135 -453 -128 -15 4 -113 -23 -232 -62 -378 -126 -617
-305 -727 -546 -14 -30 -26 -60 -27 -67 -2 -7 -8 -25 -15 -42 -7 -16 -30 -99
-52 -182 -44 -168 -110 -344 -139 -373 -3 -3 -17 -23 -31 -45 -33 -50 -132
-152 -182 -185 -20 -14 -37 -28 -37 -32 0 -10 62 25 125 70 96 68 255 243 255
280 0 6 4 12 8 14 12 4 75 166 107 273 47 158 102 261 181 340 38 39 151 115
170 115 8 0 14 5 14 10 0 6 6 10 13 10 17 0 11 -251 -8 -331 -7 -33 -10 -59
-7 -59 4 0 2 -4 -3 -8 -16 -11 -37 -81 -29 -94 4 -7 3 -10 -1 -5 -5 4 -22 -28
-38 -70 -16 -43 -37 -97 -48 -120 -10 -24 -19 -45 -19 -47 0 -3 -42 -98 -94
-213 -52 -114 -108 -239 -126 -278 -17 -38 -38 -83 -46 -98 -30 -54 17 -11 77
71 88 119 164 250 266 457 103 208 103 208 152 292 31 51 172 203 226 243 36
27 119 78 180 110 76 40 266 158 310 193 6 4 39 29 75 54 36 26 69 51 75 55
19 16 338 259 414 316 89 67 154 113 179 127 10 6 32 20 50 33 17 13 32 20 32
16 0 -7 -48 -75 -60 -84 -15 -12 -150 -201 -150 -210 0 -5 -3 -10 -8 -10 -4 0
-12 -8 -17 -19 -6 -10 -25 -46 -43 -81 -18 -34 -32 -64 -29 -66 2 -2 19 17 37
44 106 149 307 362 441 464 76 59 235 158 252 158 5 0 -11 -24 -35 -52 -24
-29 -66 -80 -92 -113 -25 -33 -52 -67 -59 -75 -40 -48 -114 -184 -128 -235
l-8 -30 22 30 c232 314 448 507 630 565 21 7 40 10 43 8 2 -3 -24 -33 -57 -69
-64 -68 -166 -198 -167 -213 0 -5 -4 -12 -9 -15 -4 -3 -19 -21 -31 -39 -36
-51 -15 -53 26 -2 61 77 225 234 277 267 28 18 56 37 63 43 6 6 12 8 12 5 0
-3 10 0 22 6 31 17 118 39 131 33 7 -2 -13 -31 -46 -67 -65 -69 -104 -133 -85
-139 6 -2 19 3 28 11 82 78 260 197 260 174 0 -4 5 -2 11 4 12 12 75 -1 93
-18 6 -5 26 -9 45 -9 l36 0 -43 26 c-24 14 -49 27 -55 28 -7 1 -18 5 -25 10
-33 20 -199 45 -306 45 -63 0 -116 -2 -118 -4z"/>
<path d="M6793 4799 c-55 -10 -123 -46 -123 -64 0 -8 26 -41 58 -73 81 -82
106 -136 106 -237 1 -89 -5 -132 -33 -220 -38 -121 -53 -170 -56 -185 -2 -8
-13 -46 -24 -85 -31 -111 -45 -215 -45 -340 1 -83 11 -223 19 -235 2 -3 6 -22
9 -42 15 -97 97 -340 116 -346 6 -2 8 -8 5 -13 -5 -7 85 -189 141 -286 22 -38
37 -43 29 -10 -20 81 -26 460 -11 622 15 157 23 205 34 205 13 0 146 -124 247
-231 143 -152 365 -424 365 -448 0 -5 4 -11 8 -13 4 -1 20 -24 35 -50 21 -36
27 -60 27 -105 0 -32 5 -65 10 -73 17 -28 43 11 42 64 -1 41 -35 143 -53 156
-3 3 -9 14 -13 26 -15 48 -328 495 -399 569 -7 7 -48 59 -92 115 -44 57 -92
117 -107 134 -15 17 -28 38 -28 47 0 17 17 62 52 139 11 24 25 56 30 70 l9 25
27 -30 c15 -17 41 -48 57 -69 17 -21 35 -44 41 -50 5 -6 39 -47 73 -91 35 -44
67 -81 72 -83 5 -2 9 -8 9 -13 0 -8 19 -35 46 -63 13 -14 224 -296 241 -322 7
-10 24 -36 38 -57 14 -21 25 -42 25 -47 0 -6 3 -10 8 -10 4 0 12 -10 18 -23 6
-12 32 -62 57 -112 96 -189 127 -327 123 -540 -5 -206 -47 -380 -153 -625 -22
-53 -176 -364 -182 -370 -4 -3 -14 -21 -25 -40 -40 -74 -70 -126 -87 -152 -11
-14 -19 -31 -19 -37 0 -6 -4 -11 -10 -11 -5 0 -10 -5 -10 -11 0 -7 -19 -42
-43 -78 -24 -36 -52 -82 -63 -101 -10 -19 -27 -43 -36 -54 -10 -11 -18 -24
-18 -28 0 -5 -8 -17 -17 -28 -10 -10 -26 -34 -36 -52 l-18 -33 21 25 c92 105
126 144 135 154 28 30 225 278 260 326 22 30 45 60 51 65 25 23 201 286 276
415 284 484 344 860 191 1200 -23 52 -108 204 -126 225 -13 16 -105 148 -246
355 -127 185 -244 348 -300 416 -14 17 -37 46 -51 64 -37 49 -154 188 -213
253 -31 35 -34 44 -35 107 -1 79 -24 185 -51 238 -39 76 -131 150 -207 166
-52 11 -136 14 -181 5z"/>
<path d="M2297 4728 c-3 -13 -9 -33 -12 -45 -5 -17 -3 -23 8 -23 15 0 40 73
29 85 -11 11 -20 4 -25 -17z"/>
<path d="M2076 4670 c-18 -46 -21 -86 -6 -95 14 -9 40 56 40 100 0 46 -14 44
-34 -5z"/>
<path d="M5445 4449 c-11 -17 1 -21 15 -4 8 9 8 15 2 15 -6 0 -14 -5 -17 -11z"/>
<path d="M6403 3894 c-14 -32 -26 -64 -26 -71 0 -7 -4 -13 -8 -13 -7 0 -17
-27 -25 -74 -3 -15 -14 -55 -25 -89 -10 -33 -17 -62 -15 -65 3 -2 1 -15 -5
-29 -5 -13 -11 -42 -14 -65 -3 -22 -7 -43 -10 -47 -2 -4 -7 -30 -10 -57 -3
-27 -8 -58 -10 -69 -14 -70 -20 -184 -18 -350 0 -104 2 -197 3 -205 2 -15 15
-109 26 -180 3 -19 11 -62 20 -95 8 -33 17 -71 20 -85 6 -30 42 -147 53 -175
5 -11 21 -56 36 -100 15 -44 51 -148 80 -231 54 -154 110 -376 101 -400 -3 -7
-1 -16 3 -19 14 -8 10 -263 -4 -351 -18 -107 -35 -177 -49 -191 -9 -10 -23 -3
-63 32 -84 73 -124 152 -138 268 -24 210 -20 189 -65 352 -27 100 -118 268
-192 353 -15 18 -35 49 -44 70 -21 51 -55 153 -58 177 -2 11 -9 49 -16 85 -7
36 -12 83 -12 105 0 37 -1 38 -10 15 -12 -28 -20 -200 -9 -200 3 0 7 -18 7
-40 3 -58 37 -164 105 -319 33 -75 64 -145 68 -156 58 -133 73 -357 36 -525
-2 -8 -4 -18 -4 -22 -3 -31 -112 44 -164 113 -34 44 -65 111 -74 159 -13 72
-101 242 -183 355 -76 105 -120 200 -120 259 0 16 -3 27 -6 23 -12 -12 -12
-145 0 -202 12 -54 80 -238 109 -290 6 -11 12 -27 13 -35 2 -8 12 -47 23 -87
22 -81 33 -171 21 -178 -14 -9 -115 34 -176 74 -98 64 -208 183 -253 275 l-30
61 -1 -53 c0 -29 7 -68 15 -88 8 -19 15 -38 16 -42 1 -4 5 -17 10 -30 20 -51
43 -152 36 -158 -4 -4 -33 -9 -64 -11 -243 -17 -534 -150 -839 -383 -225 -172
-313 -224 -465 -273 -125 -41 -305 -57 -494 -43 -33 2 -105 7 -160 11 -55 4
-116 8 -135 11 -43 5 -353 5 -395 0 -16 -2 -56 -7 -89 -10 -32 -3 -62 -8 -66
-11 -4 -3 -23 -7 -42 -9 -90 -12 -295 -72 -398 -118 -164 -73 -372 -184 -426
-227 -23 -18 -24 -20 -4 -8 49 28 115 61 129 63 7 2 18 7 24 13 6 6 19 11 29
11 10 0 18 4 18 10 0 5 7 7 15 4 8 -4 15 -2 15 3 0 5 8 9 18 10 9 0 55 12 101
27 47 14 94 26 106 26 12 0 24 3 28 6 16 16 292 24 417 12 57 -6 139 -18 205
-32 11 -2 106 -25 210 -51 242 -59 262 -63 405 -85 75 -12 284 -15 330 -5 13
2 42 7 65 11 55 8 171 39 242 65 130 48 194 82 458 242 11 7 22 14 25 17 10
10 196 128 255 162 216 123 415 168 631 143 61 -7 67 -8 144 -24 184 -39 471
-165 734 -323 146 -88 378 -242 441 -294 30 -24 57 -40 59 -35 5 8 31 120 42
181 2 14 10 50 16 80 6 30 12 60 14 65 1 6 7 35 13 65 6 30 13 64 15 75 2 11
34 171 71 355 37 184 69 346 71 360 3 14 12 59 20 100 21 102 21 99 29 150 4
25 9 54 12 65 6 32 72 396 78 435 3 19 7 46 10 60 5 29 11 66 21 135 3 28 8
59 11 70 2 11 6 54 9 95 5 74 5 75 -12 46 -9 -16 -17 -34 -18 -40 -1 -6 -5
-16 -9 -23 -13 -20 -80 -232 -277 -873 -33 -108 -40 -112 -55 -37 -2 10 -7 27
-10 37 -3 10 -8 29 -10 41 -21 110 -143 410 -280 687 -41 84 -75 155 -75 157
0 2 -23 52 -51 111 -104 220 -167 420 -195 619 -13 93 -7 345 11 420 33 142
67 262 86 296 6 11 8 23 5 26 -3 3 -18 -20 -33 -53z"/>
<path d="M4775 3234 c-133 -70 -451 -278 -552 -363 -23 -18 -45 -36 -49 -40
-5 -3 -15 -13 -22 -22 -11 -14 -9 -16 13 -11 14 2 22 9 18 15 -3 6 -1 7 5 3 7
-4 51 10 99 32 49 22 100 42 114 45 l26 7 2 -176 2 -176 -38 6 c-21 3 -65 10
-98 17 -68 12 -134 7 -185 -14 -33 -15 -29 -26 10 -25 77 4 290 -45 290 -66 0
-6 -26 -23 -57 -38 -98 -47 -222 -120 -353 -209 -144 -98 -228 -127 -301 -104
-41 13 -111 82 -130 127 -6 15 -15 28 -18 28 -4 0 -6 15 -5 32 2 31 1 32 -12
14 -14 -20 -18 -42 -14 -81 0 -11 24 -85 51 -165 62 -181 60 -175 64 -295 2
-66 -3 -129 -14 -187 -10 -49 -14 -88 -10 -88 4 0 11 10 14 23 7 23 64 113
100 156 148 181 273 298 440 412 91 63 163 105 168 98 2 -2 -15 -44 -38 -94
-52 -109 -95 -236 -95 -278 0 -34 17 -27 24 10 12 58 164 328 197 348 5 4 10
-166 11 -397 l3 -403 -47 -51 c-27 -28 -48 -56 -48 -62 0 -7 -4 -12 -9 -12
-13 0 -104 -181 -130 -258 -25 -75 -26 -94 -3 -67 9 11 46 45 82 75 36 30 67
58 70 61 3 4 49 36 103 73 152 103 334 187 437 201 24 4 49 10 55 13 5 4 19 5
30 3 13 -2 17 1 10 7 -5 6 -37 15 -70 21 -80 15 -175 44 -175 53 0 4 -6 8 -14
8 -7 0 -32 19 -55 41 l-41 41 0 384 0 383 58 -20 c71 -25 193 -50 206 -41 6 3
36 7 68 8 58 1 97 14 45 14 -32 0 -22 -2 -99 16 -71 16 -157 48 -207 78 l-35
20 45 20 c24 11 49 21 56 22 27 5 89 27 101 37 6 5 12 7 12 4 0 -3 41 6 92 18
50 13 95 22 100 19 4 -3 8 -2 8 3 0 11 74 17 205 17 149 1 183 -15 260 -118
78 -106 85 -102 56 29 -34 151 -44 372 -26 570 4 44 8 119 10 168 2 72 0 85
-11 76 -7 -6 -13 -14 -12 -17 3 -21 -91 -218 -129 -269 -13 -18 -22 -33 -19
-33 7 0 -17 -30 -72 -90 -48 -54 -72 -64 -262 -114 -74 -19 -182 -51 -239 -71
-57 -20 -105 -35 -106 -33 -2 2 20 46 49 99 59 107 102 206 94 214 -16 16 -62
-37 -173 -200 -79 -117 -75 -120 -75 60 l1 160 42 46 c116 128 190 231 180
255 -7 18 -40 17 -78 -2z"/>
<path d="M2440 2790 c0 -5 -6 -10 -14 -10 -7 0 -20 -7 -27 -17 -13 -15 -11
-15 19 1 27 14 44 36 27 36 -3 0 -5 -4 -5 -10z"/>
<path d="M2355 2740 c-3 -6 1 -7 9 -4 18 7 21 14 7 14 -6 0 -13 -4 -16 -10z"/>
<path d="M1880 2613 c-111 -13 -237 -54 -255 -83 -4 -6 34 -9 99 -9 107 0 161
-9 230 -38 31 -14 35 -18 20 -24 -11 -3 -28 -2 -39 4 -11 6 -74 10 -140 10
-140 0 -235 -23 -319 -77 -44 -28 -136 -116 -122 -116 2 0 36 16 74 35 115 59
275 79 407 51 47 -10 155 -57 150 -66 -4 -7 -63 1 -95 13 -8 3 -33 9 -55 13
-119 20 -241 2 -350 -49 -70 -34 -215 -140 -215 -158 0 -5 -6 -9 -12 -9 -37
-1 -119 -183 -112 -250 0 -8 2 -24 2 -34 3 -29 16 -12 57 73 32 65 77 130 125
182 31 33 107 77 159 93 55 16 233 17 291 1 85 -23 270 -52 318 -49 110 4 149
20 228 90 212 186 95 354 -271 389 -86 9 -146 11 -175 8z m343 -194 c45 -20
60 -81 31 -124 -42 -65 -153 -49 -171 24 -10 39 -10 38 37 86 27 27 64 32 103
14z"/>
<path d="M2896 993 c-2 -3 -26 -6 -53 -8 -85 -5 -220 -37 -341 -79 -70 -25
-222 -99 -222 -108 0 -4 -4 -8 -10 -8 -20 0 -107 -70 -119 -96 -10 -22 -10
-26 1 -17 41 32 163 106 209 126 66 29 184 68 224 74 17 2 36 6 44 9 70 24
360 23 536 -2 22 -3 56 -7 75 -9 19 -2 35 -4 35 -5 0 -3 71 -11 130 -15 33 -2
62 -4 65 -5 39 -11 330 14 330 29 0 3 10 7 23 7 48 4 153 51 181 83 l19 21
-45 0 c-24 0 -69 -8 -99 -17 -75 -24 -424 -23 -569 1 -100 17 -402 31 -414 19z"/>
<path d="M1740 190 c-9 -6 -10 -10 -3 -10 6 0 15 5 18 10 8 12 4 12 -15 0z"/>
</g>
</svg>
