 <svg  version="1.0" xmlns="http://www.w3.org/2000/svg"  width="300.000000pt" height="225.000000pt" viewBox="0 0 300.000000 225.000000"  preserveAspectRatio="xMidYMid meet">  <g transform="translate(0.000000,225.000000) scale(0.100000,-0.100000)" fill="#ffffff" stroke="none"> <path d="M1308 1959 c-7 -5 -29 -14 -49 -19 -59 -16 -125 -58 -175 -110 -48 -50 -104 -134 -104 -158 0 -7 -12 -30 -26 -52 -24 -37 -26 -44 -21 -127 8 -120 15 -161 39 -211 16 -34 19 -54 14 -95 -7 -50 -5 -54 30 -92 l36 -40 39 43 c33 35 41 39 45 24 13 -42 24 -62 34 -62 6 0 6 9 0 26 -14 37 -14 38 30 89 32 37 40 54 40 85 0 21 5 42 10 45 6 3 10 -2 10 -12 0 -10 3 -27 6 -39 4 -15 -6 -34 -35 -68 -41 -47 -58 -86 -47 -105 4 -6 13 -8 21 -4 21 7 19 -4 -9 -40 -13 -18 -33 -62 -45 -99 -12 -37 -33 -83 -47 -103 -18 -27 -20 -33 -6 -26 34 18 60 57 81 122 32 98 65 124 216 170 50 15 135 44 190 64 110 41 217 53 248 27 14 -12 36 1 171 95 85 59 153 109 151 111 -5 5 -79 -39 -185 -108 -110 -71 -117 -74 -133 -50 -6 11 -17 20 -23 20 -24 0 -66 59 -71 101 -4 29 -14 51 -29 64 -13 11 -30 40 -38 63 l-14 44 24 -23 c13 -12 24 -31 24 -40 0 -10 9 -23 20 -29 10 -6 25 -28 31 -50 27 -90 94 -105 129 -27 26 57 26 158 0 215 -25 55 -61 88 -135 121 -47 22 -81 49 -155 128 -52 55 -106 107 -120 116 -29 18 -150 29 -172 16z m66 -44 c15 -14 34 -25 43 -25 19 0 53 -28 53 -43 0 -6 -9 -2 -20 8 -19 17 -23 18 -48 3 -36 -21 -97 -34 -88 -19 4 6 18 11 30 11 13 0 29 6 35 14 10 12 5 13 -30 5 -61 -14 -85 -29 -68 -41 11 -8 11 -9 -3 -5 -9 3 -24 -3 -34 -14 -9 -10 -23 -19 -31 -19 -8 0 -3 10 14 26 19 17 22 22 8 16 -29 -15 -55 -46 -64 -78 -4 -15 -13 -30 -20 -32 -10 -3 -11 0 -1 18 17 32 5 35 -19 4 -13 -16 -21 -41 -21 -63 0 -33 -14 -61 -30 -61 -4 0 -7 7 -7 15 0 8 3 12 7 10 3 -2 7 7 8 21 2 32 -4 30 -24 -8 -14 -28 -15 -39 -5 -80 12 -45 9 -68 -8 -68 -4 0 -5 16 -3 35 6 52 -16 43 -24 -10 -4 -32 -2 -50 7 -61 12 -15 14 -14 20 7 3 14 6 1 5 -31 0 -30 -2 -45 -4 -33 -2 12 -10 27 -18 33 -11 10 -14 9 -14 -8 0 -11 5 -33 12 -49 6 -15 13 -37 15 -48 2 -10 10 -30 19 -42 8 -13 12 -28 9 -33 -3 -4 4 -31 14 -58 l20 -50 -25 -33 c-13 -18 -24 -40 -24 -48 -1 -13 -4 -12 -15 3 -15 20 -21 46 -8 33 11 -12 42 24 36 41 -6 13 -8 13 -15 -4 -6 -14 -7 -12 -3 9 5 26 4 27 -15 17 -18 -10 -24 -22 -21 -42 0 -5 -3 -8 -9 -8 -12 0 -13 37 -1 44 4 3 7 24 5 45 -2 29 1 43 13 49 14 9 15 15 3 56 -14 49 -25 58 -35 26 -8 -26 4 -47 17 -29 7 11 8 9 4 -4 -3 -10 -6 -26 -6 -34 0 -9 -3 -13 -7 -9 -5 4 -7 11 -6 14 1 4 -6 15 -15 25 -15 17 -15 21 1 49 9 16 17 50 17 75 0 39 -2 44 -15 33 -10 -9 -13 -25 -10 -54 2 -22 2 -32 -1 -21 -3 11 -10 24 -15 29 -15 17 -10 39 15 65 21 22 51 99 43 108 -6 5 -47 -28 -47 -39 0 -6 7 -5 17 3 15 13 15 12 3 -8 -17 -26 -30 -21 -30 12 0 17 9 29 30 40 42 22 92 103 55 89 -8 -4 -12 -11 -8 -17 3 -5 1 -7 -5 -3 -5 3 -13 0 -15 -6 -4 -9 -6 -8 -6 3 -1 19 18 39 39 39 9 0 29 14 45 30 26 28 27 30 8 30 -11 0 -29 -11 -39 -25 -26 -34 -37 -32 -16 4 12 21 26 30 53 34 20 3 51 15 69 28 30 22 31 24 10 27 -12 2 -31 -5 -42 -15 -20 -18 -20 -17 -17 2 4 17 14 21 66 25 68 6 76 9 63 30 -7 11 -11 11 -24 1 -11 -10 -16 -10 -16 -2 0 18 31 25 52 12 12 -8 35 -10 64 -5 36 5 42 9 33 20 -13 16 -40 18 -54 5 -6 -5 -18 -5 -30 0 -20 9 -20 9 0 6 11 -2 26 2 33 10 19 19 36 16 66 -12z m82 6 c17 -10 41 -33 55 -50 13 -18 58 -66 99 -107 57 -56 89 -79 133 -95 75 -28 121 -79 136 -150 14 -63 0 -146 -29 -181 -19 -23 -19 -23 -5 26 8 27 15 76 15 108 0 91 -30 135 -110 163 -25 9 -73 34 -107 56 -84 55 -152 79 -221 79 -76 -1 -127 -25 -184 -89 -98 -109 -137 -329 -71 -403 19 -22 33 -23 33 -4 0 17 39 66 40 49 0 -6 -4 -15 -10 -18 -5 -3 -10 -23 -10 -43 -1 -21 -9 -47 -19 -59 -26 -31 -37 -29 -17 2 16 24 15 25 -14 40 -16 8 -40 34 -52 58 -20 37 -23 57 -23 157 0 97 3 122 22 162 30 66 105 143 172 175 47 24 69 28 138 28 46 0 83 3 83 7 0 16 -66 82 -95 94 -23 10 -25 13 -10 14 11 0 34 -9 51 -19z m99 -223 c33 -17 103 -52 156 -79 67 -33 99 -56 107 -74 19 -41 14 -185 -7 -185 -3 0 -14 19 -24 43 -9 23 -42 71 -72 107 -30 35 -55 68 -55 72 0 4 -12 14 -28 22 -15 8 -43 29 -63 47 -31 30 -116 69 -148 69 -23 0 -101 -82 -101 -106 0 -13 -3 -24 -7 -24 -5 0 -28 -17 -51 -38 -42 -35 -44 -40 -52 -110 -12 -113 -45 -130 -44 -22 1 69 24 135 71 207 74 112 187 137 318 71z m-95 -18 c12 -8 10 -10 -9 -10 -14 0 -37 -14 -57 -36 -19 -19 -39 -32 -45 -28 -7 4 4 21 30 45 43 41 56 45 81 29z m85 -51 c42 -37 44 -45 8 -44 -26 0 -28 -3 -30 -40 -1 -22 1 -32 4 -22 3 12 12 16 30 13 35 -7 42 -16 12 -16 -18 0 -21 -2 -10 -9 9 -6 22 -6 33 0 10 6 23 7 28 4 12 -8 2 -135 -12 -150 -13 -14 -150 -16 -145 -1 2 6 20 15 40 20 47 12 48 30 3 24 -19 -2 -32 0 -29 5 3 5 32 6 63 3 41 -5 61 -3 66 5 4 8 3 9 -4 5 -6 -4 -25 0 -41 9 -33 17 -55 20 -31 5 11 -7 7 -10 -18 -10 -22 0 -31 4 -26 11 3 6 -12 0 -34 -12 -23 -13 -44 -20 -49 -15 -4 5 -2 11 5 13 17 6 15 28 -3 43 -24 20 -18 30 18 31 22 1 26 3 12 7 -17 4 -14 7 15 17 24 8 35 18 35 31 0 16 -7 19 -42 17 l-41 -2 24 37 c43 63 66 67 119 21z m89 -58 c10 -11 16 -29 14 -40 -2 -17 -7 -14 -25 19 -23 43 -17 53 11 21z m-332 -31 c-18 -16 -32 -35 -32 -42 -4 -108 -6 -118 -29 -142 -14 -14 -29 -26 -34 -26 -6 0 -1 10 11 23 17 18 22 36 22 76 0 29 5 61 11 73 13 24 72 78 78 72 3 -3 -10 -18 -27 -34z m57 13 c-6 -16 -19 -37 -30 -49 -14 -15 -18 -33 -18 -72 1 -28 -3 -57 -9 -64 -6 -7 -12 -29 -14 -48 l-4 -35 -8 29 c-6 20 -5 40 4 60 7 17 14 55 14 84 1 46 5 56 29 74 15 11 27 26 27 34 0 8 4 14 10 14 6 0 6 -10 -1 -27z m91 -3 c0 -5 -10 -10 -22 -10 -19 0 -20 2 -8 10 19 13 30 13 30 0z m-89 -136 c9 -42 9 -56 -4 -80 -9 -17 -19 -59 -23 -95 -6 -62 -17 -89 -36 -89 -5 0 -4 9 2 20 6 10 13 47 16 82 3 35 12 80 20 100 10 28 11 44 3 68 -6 17 -8 42 -3 58 6 23 8 24 11 7 2 -11 8 -43 14 -71z m327 -7 c18 -31 23 -50 38 -129 l6 -33 -21 37 c-12 21 -21 50 -21 65 0 16 -7 37 -15 47 -14 18 -20 46 -11 46 2 0 13 -15 24 -33z m-247 -44 c12 -32 26 -43 57 -43 29 0 28 -18 -2 -30 -15 -5 -29 -22 -36 -43 -6 -20 -17 -38 -25 -41 -12 -4 -15 5 -15 47 0 29 -4 67 -10 86 -15 54 12 74 31 24z m-363 -15 c7 -7 12 -21 11 -32 0 -15 -2 -17 -6 -6 -3 8 -12 23 -21 33 -17 19 -3 24 16 5z m582 -33 c0 -18 -1 -18 -16 -3 -10 10 -14 23 -10 34 6 16 8 16 16 4 6 -8 10 -24 10 -35z m-266 -49 c-4 -48 -3 -80 5 -94 6 -12 8 -22 3 -22 -5 0 -17 18 -27 41 -17 36 -17 45 -5 72 7 18 13 44 13 59 0 15 4 25 9 22 5 -3 6 -38 2 -78z m221 21 c8 -13 27 -29 41 -36 14 -6 23 -15 19 -20 -7 -12 -148 -59 -202 -67 -52 -8 -60 12 -9 21 33 7 34 7 24 42 -10 38 -5 70 7 38 10 -26 35 -55 48 -55 5 0 7 17 4 40 -4 31 -1 42 11 50 27 15 40 12 57 -13z m194 -55 c35 -12 40 -22 12 -22 -26 0 -68 39 -76 70 -6 22 -4 21 13 -6 11 -17 34 -36 51 -42z m-682 2 c3 -9 1 -20 -6 -27 -8 -8 -11 -5 -11 14 0 20 -2 21 -11 9 -9 -13 -10 -13 -6 1 3 9 0 22 -6 29 -10 10 -7 10 11 1 13 -7 26 -19 29 -27z m165 -29 c-2 -14 -14 -32 -25 -40 -16 -11 -19 -21 -14 -50 5 -31 4 -35 -8 -25 -24 20 -17 59 16 101 17 21 32 39 33 39 2 0 1 -11 -2 -25z m85 -62 c2 -6 -4 -14 -14 -16 -53 -15 -73 -17 -73 -7 0 5 6 10 14 10 7 0 19 7 26 15 15 18 41 16 47 -2z"/> <path d="M1041 1256 c-8 -9 -11 -19 -7 -23 3 -3 6 0 6 7 0 7 3 11 6 8 3 -4 -2 -18 -11 -32 -10 -14 -13 -26 -7 -26 18 0 33 29 30 56 -3 25 -4 26 -17 10z"/> <path d="M1070 1190 c0 -8 5 -22 10 -30 9 -13 10 -13 10 0 0 8 -5 22 -10 30 -9 13 -10 13 -10 0z"/> <path d="M1339 1797 c-56 -21 -104 -54 -144 -98 -57 -63 -78 -120 -81 -219 l-3 -85 15 80 c19 99 50 169 100 225 80 89 200 114 317 66 31 -13 57 -22 57 -20 0 2 -21 15 -46 30 -55 32 -158 42 -215 21z"/> <path d="M1476 1481 c-3 -5 0 -11 8 -14 19 -8 57 3 50 14 -7 12 -51 12 -58 0z"/> <path d="M2075 1318 c-55 -40 -189 -136 -298 -215 -113 -82 -202 -141 -209 -137 -6 4 -8 3 -5 -3 3 -5 -104 -92 -239 -194 -218 -163 -244 -186 -239 -206 8 -31 -8 -58 -53 -88 -20 -14 -32 -25 -26 -25 6 0 26 10 45 23 24 16 38 36 48 70 18 58 36 62 28 6 -9 -66 -75 -119 -150 -119 -71 0 -91 24 -29 34 58 9 106 45 110 82 2 19 -3 36 -12 44 -9 7 -16 21 -16 31 0 12 -7 19 -20 19 -19 0 -18 -2 5 -46 l25 -47 -26 -23 c-14 -13 -29 -24 -35 -24 -5 0 -18 -5 -29 -12 -15 -10 -23 -9 -39 6 -12 11 -21 29 -21 40 1 19 2 18 18 -7 24 -39 48 -37 27 3 -24 46 -17 58 10 17 14 -20 30 -37 35 -37 14 0 13 4 -11 44 -11 20 -19 41 -17 47 2 7 14 -4 26 -24 21 -37 42 -49 42 -24 0 7 -12 30 -26 51 -20 30 -31 37 -47 32 -12 -3 -25 -6 -29 -6 -5 0 -8 -7 -8 -15 0 -9 -11 -26 -25 -39 -28 -26 -31 -43 -10 -70 8 -11 15 -23 15 -27 0 -13 -38 -17 -50 -5 -7 6 -5 -1 5 -16 17 -28 17 -28 -7 -28 -16 0 -29 9 -38 24 -14 27 -7 58 12 55 32 -4 40 1 34 24 -4 17 3 32 24 56 17 18 30 36 30 40 0 4 10 12 23 18 19 9 48 9 137 1 8 -1 139 84 290 188 151 105 324 223 383 264 90 60 106 75 92 83 -13 7 -25 3 -46 -12 -36 -27 -48 -27 -24 -1 33 37 -5 21 -50 -21 -53 -49 -59 -45 -13 7 l33 37 -32 -16 c-28 -15 -93 -85 -93 -101 0 -4 14 0 30 9 74 38 16 -11 -146 -124 -220 -153 -221 -154 -184 -81 21 42 28 47 131 113 38 24 83 63 105 92 24 32 30 44 16 35 -260 -182 -255 -178 -304 -272 -22 -44 -48 -83 -57 -86 -9 -3 -22 -12 -29 -19 -19 -19 -27 -16 -41 14 -14 30 -8 39 33 49 26 6 29 5 23 -15 -3 -14 -1 -21 6 -18 17 5 86 167 86 205 1 17 -3 32 -8 32 -16 0 -51 -51 -61 -91 -6 -22 -25 -55 -42 -75 -33 -37 -88 -71 -88 -54 0 5 -24 10 -53 10 -47 0 -59 -4 -94 -35 -57 -49 -87 -99 -80 -135 5 -21 -1 -38 -23 -68 -16 -22 -33 -43 -39 -47 -18 -11 -12 -61 10 -89 23 -30 45 -33 77 -11 19 14 24 14 47 -1 15 -10 44 -16 70 -16 51 1 57 -8 20 -32 -39 -26 -29 -39 12 -18 73 37 116 45 252 46 l136 1 75 51 c41 29 95 58 120 65 25 7 46 13 48 14 1 1 -3 17 -9 35 -11 31 -13 32 -25 15 -12 -15 -18 -17 -39 -7 -20 9 -25 19 -25 48 0 21 7 46 17 56 19 22 18 23 -25 31 l-33 7 3 -73 c3 -71 3 -72 38 -89 21 -11 28 -18 17 -18 -25 0 -88 -34 -111 -59 -11 -12 -23 -21 -28 -21 -8 0 15 53 34 77 6 7 12 46 13 86 3 64 1 74 -13 74 -24 1 -78 -42 -114 -91 l-31 -41 6 32 c4 18 0 51 -10 78 -16 49 -12 71 7 36 15 -28 31 -27 98 12 l57 32 -32 3 c-18 2 -33 8 -33 14 0 6 13 8 35 4 33 -7 34 -6 32 24 -2 33 -8 36 -39 19 -40 -21 -8 10 47 47 65 43 88 41 51 -3 -15 -18 -26 -43 -26 -59 l0 -29 21 33 c12 18 24 31 27 28 2 -3 -3 -17 -12 -31 -19 -29 -18 -29 49 -7 43 15 53 24 72 61 29 58 20 65 -20 17 -45 -53 -72 -48 -72 13 l0 44 144 104 c79 57 150 102 157 99 21 -8 17 -41 -13 -104 -43 -90 -37 -152 24 -293 28 -63 54 -127 58 -144 6 -27 10 -20 35 67 15 53 31 102 35 108 5 8 3 11 -6 8 -8 -2 -22 -21 -32 -41 -21 -43 -30 -41 -57 13 -26 51 -25 66 2 40 34 -31 44 -25 64 40 l10 35 25 -29 c13 -15 39 -45 56 -66 l33 -37 -16 -54 c-16 -55 -62 -144 -70 -136 -3 2 0 33 6 68 12 75 13 149 2 149 -4 0 -22 -78 -40 -172 -18 -95 -38 -194 -43 -220 l-10 -47 -48 34 c-82 59 -169 95 -231 95 -48 0 -66 -6 -140 -50 -131 -77 -154 -81 -303 -50 -101 21 -171 16 -213 -14 -15 -12 -7 -13 55 -8 49 3 100 -1 156 -13 134 -28 194 -20 301 42 49 28 102 53 117 57 40 9 119 -16 199 -63 37 -22 76 -42 87 -46 27 -8 55 25 69 83 6 27 27 73 48 103 95 140 124 255 87 340 -21 45 -122 188 -135 189 -4 0 -10 -9 -13 -20 -5 -15 4 -34 33 -68 56 -68 92 -124 92 -144 0 -28 -17 -21 -23 10 -3 15 -29 53 -58 86 -51 56 -53 58 -61 35 -5 -13 -7 -51 -4 -84 l6 -60 -30 60 c-35 70 -40 148 -14 235 13 44 13 57 3 77 -7 12 -16 23 -21 23 -5 0 -6 5 -3 10 3 6 21 10 40 10 36 0 65 -28 65 -62 0 -10 26 -53 59 -96 120 -159 136 -189 136 -256 0 -75 -29 -138 -114 -252 -33 -44 -57 -81 -55 -83 10 -11 63 41 111 108 89 123 114 230 74 316 -10 22 -51 85 -91 140 -40 55 -81 118 -90 140 -9 22 -25 46 -34 54 -9 7 -16 17 -16 22 0 4 43 42 95 84 82 67 114 96 103 95 -2 0 -48 -33 -103 -72z m-677 -564 c-11 -24 -53 -43 -66 -29 -9 9 58 66 69 59 5 -2 3 -16 -3 -30z m-324 6 c31 -11 34 -40 6 -65 -16 -15 -30 -16 -84 -10 -73 7 -98 -1 -120 -43 -15 -26 -15 -26 -16 -4 0 13 12 34 26 47 15 14 23 25 19 25 -4 0 -2 7 5 15 7 8 21 15 31 15 11 0 18 3 18 8 -1 4 -1 10 0 15 2 10 85 9 115 -3z m216 -134 c16 -78 31 -87 80 -47 21 17 44 31 49 31 6 0 11 8 11 18 0 10 7 27 15 38 19 25 19 15 0 -29 -8 -20 -12 -43 -9 -52 4 -9 -2 -34 -12 -57 l-18 -41 -81 7 c-44 3 -101 6 -127 6 l-46 0 1 52 c2 50 5 54 55 95 29 24 57 41 62 38 5 -3 14 -30 20 -59z m93 -173 c-11 -9 -55 -12 -142 -10 -117 2 -129 0 -163 -21 -21 -13 -38 -19 -38 -14 0 9 57 40 100 55 8 3 70 5 138 4 100 -2 119 -4 105 -14z"/> <path d="M1037 725 c-8 -18 11 -31 25 -17 11 11 3 32 -12 32 -4 0 -10 -7 -13 -15z"/> <path d="M933 722 c-6 -4 11 -7 38 -8 29 0 44 3 37 8 -16 10 -59 10 -75 0z"/> <path d="M1760 1335 c0 -11 51 -65 62 -65 4 0 8 7 8 15 0 8 -5 15 -12 15 -6 0 -22 10 -35 22 -13 12 -23 18 -23 13z"/> <path d="M1577 1109 c-32 -33 -57 -62 -54 -65 7 -7 67 30 67 41 0 6 14 27 31 48 47 58 21 44 -44 -24z"/> <path d="M1822 1003 c-29 -54 -44 -139 -38 -211 5 -67 4 -73 -10 -61 -14 11 -15 9 -8 -27 4 -21 14 -50 24 -64 22 -32 40 -86 40 -119 0 -36 29 -78 41 -60 17 28 8 111 -22 201 -38 116 -46 202 -26 288 16 67 16 85 -1 53z"/> <path d="M1305 790 c-93 -65 -176 -129 -185 -141 l-15 -24 30 23 c17 12 101 74 188 138 133 99 169 127 155 123 -2 0 -79 -53 -173 -119z"/> <path d="M1695 856 c-4 -21 -5 -63 -2 -94 6 -54 6 -56 -10 -34 -18 25 -50 28 -120 11 -37 -10 -42 -14 -28 -22 10 -5 43 -9 74 -9 30 0 63 -4 73 -9 10 -6 19 -5 23 1 11 18 25 10 25 -15 0 -27 -9 -32 -27 -14 -7 7 -18 -2 -36 -34 -24 -45 -25 -46 -6 -76 10 -16 27 -35 38 -41 18 -9 21 -8 21 8 0 11 -7 36 -15 55 -8 20 -14 49 -14 64 1 15 3 21 5 13 10 -35 80 -164 92 -168 21 -7 14 64 -13 128 -14 33 -25 73 -25 90 0 17 -4 29 -9 26 -12 -8 -21 28 -21 84 0 63 -16 85 -25 36z"/> </g> </svg> 